<svg xmlns="http://www.w3.org/2000/svg" xmlns:xlink="http://www.w3.org/1999/xlink" width="100" height="100" viewBox="0 0 100 100"><circle stroke="none" fill="#66D6FF" r="48%" cx="50%" cy="50%"></circle><g transform="translate(50 50) scale(0.69 0.69) rotate(0) translate(-50 -50)" style="fill:#0059B3"><svg fill="#0059B3" xmlns:x="http://ns.adobe.com/Extensibility/1.0/" xmlns:i="http://ns.adobe.com/AdobeIllustrator/10.0/" xmlns:graph="http://ns.adobe.com/Graphs/1.0/" xmlns="http://www.w3.org/2000/svg" xmlns:xlink="http://www.w3.org/1999/xlink" version="1.1" x="0px" y="0px" viewBox="0 0 100 100" style="enable-background:new 0 0 100 100;" xml:space="preserve"><g><g i:extraneous="self"><g><path d="M39.2,70.3c-0.1-0.1-0.2-0.3-0.4-0.4c-0.2,0.1-0.4,0.1-0.7,0.2c-1.7,0.4-3.6,0.9-5.6,0.9c-2.6,0-4.8-0.7-6.7-2.1     c-4.1-2.9-4.6-7.6-4.8-10.7L7.8,82.3c-1.3,2.3,0.5,4.9,3.1,4.7l10.8-0.9l5.1,9.6c1.2,2.3,4.4,2.3,5.6,0.1l11.5-21     C41.8,73.5,40.3,71.7,39.2,70.3z"></path><path d="M92.2,82.3L79,58.2c-0.2,3.1-0.8,7.7-4.8,10.7c-1.9,1.4-4.1,2.1-6.7,2.1c-2.1,0-3.9-0.4-5.6-0.9     c-0.2-0.1-0.4-0.1-0.7-0.2c-0.2,0.2-0.3,0.3-0.4,0.4c-1.1,1.3-2.6,3.2-4.7,4.5l11.5,21c1.2,2.3,4.4,2.2,5.6-0.1l5.1-9.6L89.1,87     C91.7,87.3,93.4,84.6,92.2,82.3z"></path><path d="M58.6,62.1c0.4-0.1,0.8-0.2,1.3-0.2c2.3,0,5.3,1.3,7.6,1.3c0.8,0,1.5-0.2,2.1-0.6c2.6-1.9,1-8,2.9-10.6     c1.8-2.6,8.2-2.9,9.2-6c0.9-3-3.9-7-3.9-10.3c0-3.3,4.9-7.3,3.9-10.3c-1-3.1-7.4-3.4-9.2-6c-1.9-2.6-0.3-8.8-2.9-10.7     c-0.6-0.4-1.2-0.6-2.1-0.6c-2.3,0-5.3,1.3-7.6,1.3c-0.5,0-0.9-0.1-1.3-0.2c-3-0.9-5.3-6.9-8.6-6.9c-3.3,0-5.6,5.9-8.5,6.9     c-0.4,0.2-0.8,0.2-1.3,0.2c-2.3,0-5.3-1.3-7.6-1.3c-0.8,0-1.5,0.2-2.1,0.6c-2.6,1.9-1,8-2.9,10.7c-1.8,2.6-8.2,2.9-9.2,6     c-0.9,2.9,3.9,6.9,3.9,10.3c0,3.3-4.9,7.3-3.9,10.3c1,3.1,7.4,3.4,9.2,6c1.9,2.6,0.3,8.7,2.9,10.6c0.6,0.4,1.2,0.6,2.1,0.6     c2.3,0,5.3-1.3,7.6-1.3c0.5,0,0.9,0.1,1.3,0.2c3,0.9,5.3,6.9,8.5,6.9C53.3,69,55.6,63,58.6,62.1z M50.7,46.1     c-0.4-0.2-1-0.2-1.4,0l-6.4,3.6c-1.7,1-3.7-0.5-3.4-2.4l1.5-7.2c0.1-0.5-0.1-1-0.4-1.3l-5.4-5c-1.4-1.3-0.7-3.7,1.3-3.9l7.3-0.8     c0.5-0.1,0.9-0.4,1.1-0.8l3-6.7c0.8-1.8,3.3-1.8,4.1,0l3.1,6.7c0.2,0.5,0.6,0.8,1.1,0.8l7.3,0.8c1.9,0.2,2.7,2.6,1.3,3.9l-5.4,5     c-0.4,0.3-0.5,0.8-0.4,1.3l1.5,7.2c0.4,1.9-1.7,3.4-3.4,2.4L50.7,46.1z"></path></g></g></g></svg></g></svg>